<svg width="175" height="47" viewBox="0 0 175 47" fill="none" xmlns="http://www.w3.org/2000/svg">
<rect x="13.2724" y="15.4943" width="160.636" height="15.885" rx="7.94248" fill="url(#paint0_linear)" stroke="#532461" stroke-width="2.15507"/>
<rect x="17.009" y="16.231" width="118.126" height="13.8904" rx="6.94518" fill="url(#paint1_linear)" stroke="#FFFFFD" stroke-width="1.87639"/>
<path d="M51.8238 13.3213C43.4729 -9.03737 27.0688 6.58687 27.0688 6.58687C27.0688 6.58687 9.52649 -8.76792 1.98383 13.3214C-1.51815 29.4845 26.7712 45.1086 26.7712 45.1086C26.7712 45.1086 55.3258 29.4844 51.8238 13.3213Z" fill="#CE4557" stroke="#EE8D94" stroke-width="1.6163"/>
<path d="M13.029 9.27065C11.0292 10.8191 10.1408 12.0215 9.13881 10.7275C8.13685 9.43356 8.94573 7.1293 10.9455 5.58081C12.9453 4.03233 16.6065 4.28686 17.6084 5.58082C18.6104 6.87478 15.0288 7.72217 13.029 9.27065Z" fill="white"/>
<path d="M7.64138 12.9675C7.64138 13.5626 6.58914 14.3144 5.99404 14.3144C5.39893 14.3144 4.9165 13.832 4.9165 13.2369C4.9165 12.6418 6.47647 11.0818 7.07157 11.0818C7.66668 11.0818 7.64138 12.3724 7.64138 12.9675Z" fill="white"/>
<defs>
<linearGradient id="paint0_linear" x1="93.5903" y1="14.4168" x2="93.5903" y2="32.4568" gradientUnits="userSpaceOnUse">
<stop offset="0.473858" stop-color="#853594"/>
<stop offset="0.473958" stop-color="#692789"/>
</linearGradient>
<linearGradient id="paint1_linear" x1="76.072" y1="15.2928" x2="76.072" y2="31.0595" gradientUnits="userSpaceOnUse">
<stop offset="0.442708" stop-color="#F07CC3"/>
<stop offset="0.442808" stop-color="#C5418E"/>
</linearGradient>
</defs>
</svg>
